<?xml version="1.0" encoding="utf-8"?>
<!-- Generator: Adobe Illustrator 19.0.0, SVG Export Plug-In . SVG Version: 6.00 Build 0)  -->
<svg version="1.1" id="Layer_1" xmlns="http://www.w3.org/2000/svg" xmlns:xlink="http://www.w3.org/1999/xlink" x="0px" y="0px"
	 viewBox="48 0 275.2 64" style="enable-background:new 48 0 275.2 64;" xml:space="preserve">
<style type="text/css">
	.st0{enable-background:new    ;}
	.st1{fill:#7D7D7E;}
</style>
<g class="st0">
	<path d="M137.1,46.9h-2.7V29.5h2.7V46.9z"/>
	<path d="M142.4,29.5l3.5,11.7V29.5h2.7v17.4h-2.9l-3.7-11.2v11.2h-2.7V29.5H142.4z"/>
	<path d="M159.4,42.8c0,1.1-0.4,2.1-1.2,2.9c-0.8,0.8-1.8,1.2-3,1.2H151V29.5h4.2c1.2,0,2.2,0.4,3,1.2c0.8,0.8,1.2,1.8,1.2,2.9V42.8
		z M153.7,44.3h1.6c0.4,0,0.8-0.2,1.1-0.5c0.3-0.3,0.4-0.7,0.4-1.1v-9.1c0-0.4-0.1-0.8-0.4-1.1c-0.3-0.3-0.7-0.4-1.1-0.4h-1.6V44.3z
		"/>
	<path d="M166,47.1c-1.2,0-2.2-0.4-3-1.2c-0.8-0.8-1.2-1.8-1.2-2.9V29.5h2.6v13.4c0,0.4,0.2,0.8,0.5,1.1c0.3,0.3,0.7,0.4,1.1,0.4
		c0.4,0,0.8-0.1,1.1-0.4c0.3-0.3,0.4-0.6,0.4-1.1V29.5h2.8V43c0,1.2-0.4,2.2-1.2,2.9S167.1,47.1,166,47.1z"/>
	<path d="M181.2,42.6c0,1.2-0.3,2.3-1,3.1c-0.4,0.6-1,1-1.8,1.2c-0.4,0.1-0.9,0.2-1.5,0.2c-1,0-1.9-0.3-2.6-0.8
		c-0.6-0.4-1-1-1.4-1.7c-0.3-0.7-0.5-1.5-0.6-2.5l2.5-0.2c0.1,1,0.4,1.8,0.8,2.2c0.3,0.3,0.7,0.5,1.1,0.5c0.6,0,1-0.3,1.4-0.8
		c0.2-0.3,0.3-0.7,0.3-1.2c0-0.7-0.3-1.4-1-2.2c-0.5-0.5-1.3-1.2-2.4-2.2c-0.9-0.8-1.5-1.6-1.9-2.3c-0.4-0.8-0.6-1.6-0.6-2.4
		c0-1.6,0.5-2.8,1.6-3.6c0.7-0.5,1.5-0.7,2.5-0.7c1,0,1.8,0.2,2.4,0.6c0.5,0.3,1,0.8,1.3,1.4c0.3,0.6,0.5,1.3,0.6,2l-2.6,0.5
		c-0.1-0.7-0.3-1.3-0.6-1.7c-0.2-0.3-0.6-0.4-1.1-0.4c-0.5,0-0.9,0.2-1.1,0.6c-0.2,0.3-0.3,0.8-0.3,1.3c0,0.8,0.3,1.6,1,2.4
		c0.3,0.3,0.7,0.7,1.2,1.1c0.6,0.5,1,0.9,1.2,1.1c0.7,0.6,1.2,1.3,1.5,1.9c0.2,0.3,0.3,0.6,0.4,0.8
		C181.1,41.5,181.2,42.1,181.2,42.6z"/>
	<path d="M185.9,32.1h-2.8v-2.6h8.3v2.6h-2.8v14.8h-2.7V32.1z"/>
	<path d="M197.7,29.5c1.5,0,2.6,0.4,3.3,1.2c0.6,0.7,0.9,1.7,0.9,2.9v2.5c0,1.2-0.5,2.3-1.4,3.1l2,7.6h-2.9l-1.6-6.6
		c-0.1,0-0.2,0-0.2,0h-1.5v6.6h-2.7V29.5H197.7z M199.3,33.7c0-1-0.5-1.5-1.5-1.5h-1.6v5.6h1.6c0.4,0,0.8-0.1,1.1-0.4
		c0.3-0.3,0.4-0.7,0.4-1.1V33.7z"/>
	<path d="M207.4,46.9h-2.7V29.5h2.7V46.9z"/>
	<path d="M213.1,42.9l-0.6,4h-2.8l3-17.4h3.7l3,17.4h-2.8l-0.6-4H213.1z M214.5,33.5l-1,6.9h2L214.5,33.5z"/>
	<path d="M228.8,46.9h-7.3V29.5h2.7v14.8h4.6V46.9z"/>
	<path d="M241.3,42.6c0,1.2-0.3,2.3-1,3.1c-0.4,0.6-1,1-1.8,1.2c-0.4,0.1-0.9,0.2-1.5,0.2c-1,0-1.9-0.3-2.6-0.8
		c-0.6-0.4-1-1-1.4-1.7c-0.3-0.7-0.5-1.5-0.6-2.5L235,42c0.1,1,0.4,1.8,0.8,2.2c0.3,0.3,0.7,0.5,1.1,0.5c0.6,0,1-0.3,1.4-0.8
		c0.2-0.3,0.3-0.7,0.3-1.2c0-0.7-0.3-1.4-1-2.2c-0.5-0.5-1.3-1.2-2.4-2.2c-0.9-0.8-1.5-1.6-1.9-2.3c-0.4-0.8-0.6-1.6-0.6-2.4
		c0-1.6,0.5-2.8,1.6-3.6c0.7-0.5,1.5-0.7,2.5-0.7c1,0,1.8,0.2,2.4,0.6c0.5,0.3,1,0.8,1.3,1.4c0.3,0.6,0.5,1.3,0.6,2l-2.6,0.5
		c-0.1-0.7-0.3-1.3-0.6-1.7c-0.2-0.3-0.6-0.4-1.1-0.4c-0.5,0-0.9,0.2-1.1,0.6c-0.2,0.3-0.3,0.8-0.3,1.3c0,0.8,0.3,1.6,1,2.4
		c0.3,0.3,0.7,0.7,1.2,1.1c0.6,0.5,1,0.9,1.2,1.1c0.7,0.6,1.2,1.3,1.5,1.9c0.2,0.3,0.3,0.6,0.4,0.8
		C241.2,41.5,241.3,42.1,241.3,42.6z"/>
	<path d="M246.3,42.9l-0.6,4h-2.8l3-17.4h3.7l3,17.4h-2.8l-0.6-4H246.3z M247.7,33.5l-1,6.9h2L247.7,33.5z"/>
	<path d="M262,46.9h-7.3V29.5h2.7v14.8h4.6V46.9z"/>
	<path d="M263.8,46.9V29.5h7.6v2.6h-4.9v4.8h3.6v2.6h-3.6v4.8h4.9v2.6H263.8z"/>
	<path d="M282.1,42.6c0,1.2-0.3,2.3-1,3.1c-0.4,0.6-1,1-1.8,1.2c-0.4,0.1-0.9,0.2-1.5,0.2c-1,0-1.9-0.3-2.6-0.8
		c-0.6-0.4-1-1-1.4-1.7c-0.3-0.7-0.5-1.5-0.6-2.5l2.5-0.2c0.1,1,0.4,1.8,0.8,2.2c0.3,0.3,0.7,0.5,1.1,0.5c0.6,0,1-0.3,1.4-0.8
		c0.2-0.3,0.3-0.7,0.3-1.2c0-0.7-0.3-1.4-1-2.2c-0.5-0.5-1.3-1.2-2.4-2.2c-0.9-0.8-1.5-1.6-1.9-2.3c-0.4-0.8-0.6-1.6-0.6-2.4
		c0-1.6,0.5-2.8,1.6-3.6c0.7-0.5,1.5-0.7,2.5-0.7c1,0,1.8,0.2,2.4,0.6c0.5,0.3,1,0.8,1.3,1.4c0.3,0.6,0.5,1.3,0.6,2l-2.6,0.5
		c-0.1-0.7-0.3-1.3-0.6-1.7c-0.2-0.3-0.6-0.4-1.1-0.4c-0.5,0-0.9,0.2-1.1,0.6c-0.2,0.3-0.3,0.8-0.3,1.3c0,0.8,0.3,1.6,1,2.4
		c0.3,0.3,0.7,0.7,1.2,1.1c0.6,0.5,1,0.9,1.2,1.1c0.7,0.6,1.2,1.3,1.5,1.9c0.2,0.3,0.3,0.6,0.4,0.8
		C281.9,41.5,282.1,42.1,282.1,42.6z"/>
	<path d="M283.9,46.9v-2.6h2.7v2.6l-1,2h-1.1l0.6-2H283.9z"/>
	<path d="M292.9,46.9h-2.7V29.5h2.7V46.9z"/>
	<path d="M298.3,29.5l3.5,11.7V29.5h2.7v17.4h-2.9L298,35.8v11.2h-2.7V29.5H298.3z"/>
	<path d="M311.1,47.1c-1.2,0-2.2-0.4-3-1.2c-0.8-0.8-1.2-1.8-1.2-2.9v-9.5c0-1.2,0.4-2.1,1.2-3s1.8-1.2,3-1.2c1.2,0,2.2,0.4,3,1.2
		c0.8,0.8,1.2,1.8,1.2,2.9v2h-2.8v-2c0-0.4-0.2-0.8-0.5-1.1s-0.7-0.4-1.1-0.4c-0.4,0-0.8,0.1-1.1,0.4c-0.3,0.3-0.4,0.7-0.4,1.1V43
		c0,0.4,0.1,0.8,0.4,1.1c0.3,0.3,0.7,0.4,1.1,0.4c0.4,0,0.8-0.1,1.1-0.4s0.5-0.6,0.5-1.1v-2.4h2.8V43c0,1.2-0.4,2.1-1.2,2.9
		C313.2,46.7,312.2,47.1,311.1,47.1z"/>
	<path d="M317.1,44.3h2.7v2.6h-2.7V44.3z"/>
</g>
<g class="st0">
	<path d="M138.4,57.2c0,0.6-0.2,1.2-0.5,1.6c-0.2,0.3-0.5,0.5-0.9,0.6c-0.2,0.1-0.5,0.1-0.8,0.1c-0.5,0-1-0.1-1.3-0.4
		c-0.3-0.2-0.5-0.5-0.7-0.9c-0.2-0.4-0.3-0.8-0.3-1.3l1.3-0.1c0.1,0.5,0.2,0.9,0.4,1.1c0.2,0.2,0.3,0.3,0.6,0.3
		c0.3,0,0.5-0.2,0.7-0.4c0.1-0.1,0.1-0.3,0.1-0.6c0-0.4-0.2-0.7-0.5-1.1c-0.3-0.3-0.7-0.6-1.2-1.1c-0.5-0.4-0.8-0.8-1-1.2
		c-0.2-0.4-0.3-0.8-0.3-1.3c0-0.8,0.3-1.4,0.8-1.9c0.3-0.3,0.8-0.4,1.3-0.4c0.5,0,0.9,0.1,1.2,0.3c0.3,0.2,0.5,0.4,0.7,0.7
		c0.2,0.3,0.3,0.6,0.3,1l-1.3,0.2c0-0.4-0.1-0.7-0.3-0.9c-0.1-0.1-0.3-0.2-0.5-0.2c-0.2,0-0.4,0.1-0.6,0.3c-0.1,0.2-0.2,0.4-0.2,0.7
		c0,0.4,0.2,0.8,0.5,1.3c0.1,0.2,0.3,0.4,0.6,0.6c0.3,0.3,0.5,0.4,0.6,0.6c0.3,0.3,0.6,0.7,0.8,1c0.1,0.2,0.2,0.3,0.2,0.4
		C138.4,56.7,138.4,57,138.4,57.2z"/>
	<path d="M141.7,50.5c0.7,0,1.2,0.2,1.6,0.6c0.4,0.4,0.5,0.9,0.5,1.5v1.3c0,0.6-0.2,1.1-0.6,1.5s-0.9,0.6-1.5,0.6h-0.8v3.4h-1.4v-9
		H141.7z M142.5,52.6c0-0.2-0.1-0.4-0.2-0.6c-0.1-0.1-0.3-0.2-0.6-0.2h-0.8v2.9h0.8c0.2,0,0.4-0.1,0.5-0.2s0.2-0.3,0.2-0.6V52.6z"/>
	<path d="M144.9,59.5v-9h3.9v1.4h-2.5v2.5h1.8v1.4h-1.8v2.5h2.5v1.4H144.9z"/>
	<path d="M151.9,59.6c-0.6,0-1.1-0.2-1.5-0.6c-0.4-0.4-0.6-0.9-0.6-1.5v-4.9c0-0.6,0.2-1.1,0.6-1.5c0.4-0.4,0.9-0.6,1.5-0.6
		c0.6,0,1.1,0.2,1.5,0.6s0.6,0.9,0.6,1.5v1h-1.4v-1.1c0-0.2-0.1-0.4-0.2-0.6s-0.3-0.2-0.6-0.2c-0.2,0-0.4,0.1-0.5,0.2
		s-0.2,0.3-0.2,0.6v4.9c0,0.2,0.1,0.4,0.2,0.5c0.2,0.2,0.3,0.2,0.5,0.2c0.2,0,0.4-0.1,0.6-0.2c0.2-0.2,0.2-0.3,0.2-0.5v-1.2h1.4v1.3
		c0,0.6-0.2,1.1-0.6,1.5S152.5,59.6,151.9,59.6z"/>
	<path d="M156.5,59.5h-1.4v-9h1.4V59.5z"/>
	<path d="M159.4,57.4l-0.3,2.1h-1.4l1.5-9h1.9l1.5,9h-1.4l-0.3-2.1H159.4z M160.1,52.5l-0.5,3.6h1L160.1,52.5z"/>
	<path d="M167.4,59.5h-3.7v-9h1.4v7.7h2.3V59.5z"/>
	<path d="M169.7,59.5h-1.4v-9h1.4V59.5z"/>
	<path d="M174.8,50.5v1.4l-2.5,6.3h2.5v1.4h-4v-1.4l2.5-6.3l-2.5,0v-1.4H174.8z"/>
	<path d="M177.3,59.5h-1.4v-9h1.4V59.5z"/>
	<path d="M180,50.5l1.8,6.1v-6.1h1.4v9h-1.5l-1.9-5.8v5.8h-1.4v-9H180z"/>
	<path d="M186.5,59.6c-0.6,0-1.1-0.2-1.5-0.6s-0.6-0.9-0.6-1.5v-4.9c0-0.6,0.2-1.1,0.6-1.5c0.4-0.4,0.9-0.6,1.5-0.6
		c0.6,0,1.1,0.2,1.5,0.6s0.6,0.9,0.6,1.5v1h-1.4v-1.1c0-0.2-0.1-0.4-0.2-0.6s-0.3-0.2-0.6-0.2c-0.2,0-0.4,0.1-0.5,0.2
		s-0.2,0.3-0.2,0.6v4.9c0,0.2,0.1,0.4,0.2,0.5c0.2,0.2,0.3,0.2,0.5,0.2c0.2,0,0.4-0.1,0.6-0.2s0.2-0.3,0.2-0.5v-1.8h-0.8v-1.4h2.2
		v3.1c0,0.6-0.2,1.1-0.6,1.5S187.1,59.6,186.5,59.6z"/>
</g>
<g class="st0">
	<path d="M192.8,59.6h-1.4v-9h1.4V59.6z"/>
	<path d="M195.6,50.6l1.8,6.1v-6.1h1.4v9h-1.5l-1.9-5.8v5.8H194v-9H195.6z"/>
</g>
<g class="st0">
	<path d="M203.2,57.6l-0.3,2.1h-1.4l1.5-9h1.9l1.5,9h-1.4l-0.3-2.1H203.2z M203.9,52.7l-0.5,3.6h1L203.9,52.7z"/>
	<path d="M207.5,59.6v-9h2c0.5,0,1,0.1,1.5,0.4c0.4,0.2,0.6,0.6,0.8,1.1c0.1,0.3,0.1,0.6,0.1,1c0,0.6-0.2,1.1-0.5,1.5
		c-0.1,0.2-0.3,0.3-0.5,0.4c0.3,0.1,0.6,0.3,0.8,0.7c0.1,0.2,0.2,0.5,0.3,0.9c0,0.2,0.1,0.4,0.1,0.6c0,0.6-0.1,1.1-0.3,1.5
		c-0.2,0.3-0.4,0.6-0.7,0.7c-0.3,0.2-0.7,0.3-1,0.3H207.5z M209,54.3h0.6c0.4,0,0.7-0.2,0.9-0.6c0.1-0.2,0.1-0.3,0.1-0.6
		c0-0.4-0.1-0.7-0.3-0.8c-0.2-0.2-0.4-0.3-0.7-0.3H209V54.3z M209,58.3h0.6c0.5,0,0.8-0.2,1-0.7c0.1-0.2,0.1-0.4,0.1-0.6
		c0-0.5-0.1-0.9-0.3-1.1c-0.2-0.2-0.4-0.3-0.8-0.3H209V58.3z"/>
	<path d="M215.5,50.6c0.8,0,1.3,0.2,1.7,0.6c0.3,0.4,0.5,0.9,0.5,1.5v1.3c0,0.6-0.2,1.2-0.7,1.6l1,3.9h-1.5l-0.8-3.4
		c0,0-0.1,0-0.1,0h-0.8v3.4h-1.4v-9H215.5z M216.3,52.8c0-0.5-0.3-0.8-0.8-0.8h-0.8v2.9h0.8c0.2,0,0.4-0.1,0.6-0.2
		c0.2-0.2,0.2-0.3,0.2-0.6V52.8z"/>
	<path d="M220.7,57.6l-0.3,2.1H219l1.5-9h1.9l1.5,9h-1.4l-0.3-2.1H220.7z M221.5,52.7l-0.5,3.6h1L221.5,52.7z"/>
	<path d="M229.2,57.4c0,0.6-0.2,1.2-0.5,1.6c-0.2,0.3-0.5,0.5-0.9,0.6c-0.2,0.1-0.5,0.1-0.8,0.1c-0.5,0-1-0.1-1.3-0.4
		c-0.3-0.2-0.5-0.5-0.7-0.9c-0.2-0.4-0.3-0.8-0.3-1.3l1.3-0.1c0.1,0.5,0.2,0.9,0.4,1.1c0.2,0.2,0.4,0.3,0.6,0.3
		c0.3,0,0.5-0.2,0.7-0.4c0.1-0.1,0.1-0.3,0.1-0.6c0-0.4-0.2-0.7-0.5-1.1c-0.3-0.3-0.7-0.6-1.2-1.1c-0.5-0.4-0.8-0.8-1-1.2
		c-0.2-0.4-0.3-0.8-0.3-1.3c0-0.8,0.3-1.4,0.8-1.9c0.3-0.3,0.8-0.4,1.3-0.4c0.5,0,0.9,0.1,1.3,0.3c0.3,0.2,0.5,0.4,0.7,0.7
		c0.2,0.3,0.3,0.6,0.3,1l-1.3,0.2c0-0.4-0.1-0.7-0.3-0.9c-0.1-0.1-0.3-0.2-0.5-0.2c-0.3,0-0.4,0.1-0.6,0.3c-0.1,0.2-0.2,0.4-0.2,0.7
		c0,0.4,0.2,0.8,0.5,1.3c0.1,0.2,0.3,0.4,0.6,0.6c0.3,0.3,0.5,0.4,0.6,0.6c0.3,0.3,0.6,0.7,0.8,1c0.1,0.2,0.2,0.3,0.2,0.4
		C229.1,56.9,229.2,57.1,229.2,57.4z"/>
	<path d="M231.7,59.6h-1.4v-9h1.4V59.6z"/>
	<path d="M234.4,59.6l-1.6-9h1.4l1.1,7l1.1-7h1.4l-1.6,9H234.4z"/>
	<path d="M239.1,59.6v-9h3.9V52h-2.5v2.5h1.8v1.4h-1.8v2.5h2.5v1.4H239.1z"/>
	<path d="M248.5,57.4c0,0.6-0.2,1.2-0.5,1.6c-0.2,0.3-0.5,0.5-0.9,0.6c-0.2,0.1-0.5,0.1-0.8,0.1c-0.5,0-1-0.1-1.3-0.4
		c-0.3-0.2-0.5-0.5-0.7-0.9c-0.2-0.4-0.3-0.8-0.3-1.3l1.3-0.1c0.1,0.5,0.2,0.9,0.4,1.1c0.2,0.2,0.4,0.3,0.6,0.3
		c0.3,0,0.5-0.2,0.7-0.4c0.1-0.1,0.1-0.3,0.1-0.6c0-0.4-0.2-0.7-0.5-1.1c-0.3-0.3-0.7-0.6-1.2-1.1c-0.5-0.4-0.8-0.8-1-1.2
		c-0.2-0.4-0.3-0.8-0.3-1.3c0-0.8,0.3-1.4,0.8-1.9c0.3-0.3,0.8-0.4,1.3-0.4c0.5,0,0.9,0.1,1.3,0.3c0.3,0.2,0.5,0.4,0.7,0.7
		c0.2,0.3,0.3,0.6,0.3,1l-1.3,0.2c0-0.4-0.1-0.7-0.3-0.9c-0.1-0.1-0.3-0.2-0.5-0.2c-0.3,0-0.4,0.1-0.6,0.3c-0.1,0.2-0.2,0.4-0.2,0.7
		c0,0.4,0.2,0.8,0.5,1.3c0.1,0.2,0.3,0.4,0.6,0.6c0.3,0.3,0.5,0.4,0.6,0.6c0.3,0.3,0.6,0.7,0.8,1c0.1,0.2,0.2,0.3,0.2,0.4
		C248.4,56.9,248.5,57.1,248.5,57.4z"/>
</g>
<g class="st0">
	<path d="M255.7,57.4c0,0.6-0.2,1.2-0.5,1.6c-0.2,0.3-0.5,0.5-0.9,0.6c-0.2,0.1-0.5,0.1-0.8,0.1c-0.5,0-1-0.1-1.3-0.4
		c-0.3-0.2-0.5-0.5-0.7-0.9c-0.2-0.4-0.3-0.8-0.3-1.3l1.3-0.1c0.1,0.5,0.2,0.9,0.4,1.1c0.2,0.2,0.4,0.3,0.6,0.3
		c0.3,0,0.5-0.2,0.7-0.4c0.1-0.1,0.1-0.3,0.1-0.6c0-0.4-0.2-0.7-0.5-1.1c-0.3-0.3-0.7-0.6-1.2-1.1c-0.5-0.4-0.8-0.8-1-1.2
		c-0.2-0.4-0.3-0.8-0.3-1.3c0-0.8,0.3-1.4,0.8-1.9c0.3-0.3,0.8-0.4,1.3-0.4c0.5,0,0.9,0.1,1.2,0.3c0.3,0.2,0.5,0.4,0.7,0.7
		s0.3,0.6,0.3,1l-1.3,0.2c0-0.4-0.1-0.7-0.3-0.9c-0.1-0.1-0.3-0.2-0.5-0.2c-0.3,0-0.4,0.1-0.6,0.3c-0.1,0.2-0.2,0.4-0.2,0.7
		c0,0.4,0.2,0.8,0.5,1.3c0.1,0.2,0.3,0.4,0.6,0.6c0.3,0.3,0.5,0.4,0.6,0.6c0.3,0.3,0.6,0.7,0.8,1c0.1,0.2,0.2,0.3,0.2,0.4
		C255.6,56.9,255.7,57.1,255.7,57.4z"/>
	<path d="M258.2,59.6h-1.4v-9h1.4V59.6z"/>
	<path d="M260.9,50.6l1.8,6.1v-6.1h1.4v9h-1.5l-1.9-5.8v5.8h-1.4v-9H260.9z"/>
	<path d="M267.5,59.8c-0.6,0-1.1-0.2-1.5-0.6c-0.4-0.4-0.6-0.9-0.6-1.5v-4.9c0-0.6,0.2-1.1,0.6-1.5c0.4-0.4,0.9-0.6,1.5-0.6
		c0.6,0,1.1,0.2,1.5,0.6c0.4,0.4,0.6,0.9,0.6,1.5v1h-1.4v-1.1c0-0.2-0.1-0.4-0.2-0.6c-0.2-0.2-0.3-0.2-0.6-0.2s-0.4,0.1-0.6,0.2
		c-0.2,0.2-0.2,0.3-0.2,0.6v4.9c0,0.2,0.1,0.4,0.2,0.5c0.2,0.2,0.3,0.2,0.6,0.2s0.4-0.1,0.6-0.2c0.2-0.2,0.2-0.3,0.2-0.5v-1.2h1.4
		v1.3c0,0.6-0.2,1.1-0.6,1.5S268.1,59.8,267.5,59.8z"/>
	<path d="M270.7,59.6v-9h3.9V52h-2.5v2.5h1.8v1.4h-1.8v2.5h2.5v1.4H270.7z"/>
</g>
<path id="XMLID_23_" class="st1" d="M77.5,0.1C61.2,0.1,48,13.3,48,29.5s13.2,29.4,29.5,29.4S107,45.8,107,29.5S93.8,0.1,77.5,0.1z
	 M77.4,34.3c-2.6,0-4.7-2.1-4.7-4.6s2.1-4.6,4.7-4.6s4.7,2.1,4.7,4.6S80,34.3,77.4,34.3z"/>
<g class="st0">
	<path d="M278.5,59.6v-6.9h-1.2v-0.9c0.3,0,0.6-0.2,0.9-0.4c0.3-0.2,0.5-0.5,0.6-0.8h1v9H278.5z"/>
	<path d="M283.1,50.5c0.6,0,1.1,0.2,1.5,0.6c0.4,0.4,0.6,0.9,0.6,1.5v4.9c0,0.6-0.2,1.1-0.6,1.5s-0.9,0.6-1.5,0.6
		c-0.6,0-1.1-0.2-1.5-0.6c-0.4-0.4-0.6-0.9-0.6-1.5v-0.2h1.4v0.2c0,0.2,0.1,0.4,0.2,0.6c0.1,0.1,0.3,0.2,0.5,0.2
		c0.2,0,0.4-0.1,0.5-0.2c0.1-0.1,0.2-0.3,0.2-0.6v-1.8c-0.3,0.3-0.7,0.4-1,0.4c-0.6,0-1-0.2-1.3-0.6c-0.3-0.4-0.4-0.9-0.4-1.5v-1.5
		h0c0-0.4,0.1-0.8,0.4-1.1c0.2-0.3,0.5-0.6,0.9-0.7C282.5,50.6,282.8,50.5,283.1,50.5z M283.8,52.7c0-0.2-0.1-0.4-0.2-0.6
		c-0.1-0.2-0.3-0.2-0.5-0.2c-0.2,0-0.4,0.1-0.5,0.2c-0.1,0.2-0.2,0.3-0.2,0.6v1.7c0,0.3,0.1,0.5,0.3,0.7c0.1,0.1,0.2,0.1,0.4,0.1
		c0.3,0,0.6-0.2,0.7-0.5c0-0.1,0-0.2,0-0.3V52.7z"/>
	<path d="M289,52.9v-0.2c0-0.2-0.1-0.4-0.2-0.6c-0.1-0.2-0.3-0.2-0.5-0.2s-0.4,0.1-0.5,0.2c-0.1,0.2-0.2,0.3-0.2,0.6v1.8
		c0.3-0.3,0.7-0.4,1-0.4c0.6,0,1.1,0.2,1.4,0.6c0.3,0.4,0.4,0.9,0.4,1.5v1.5h0c0,0.6-0.2,1.1-0.6,1.4c-0.4,0.4-0.9,0.6-1.4,0.6
		c-0.6,0-1.1-0.2-1.5-0.6c-0.4-0.4-0.6-0.9-0.6-1.5v-4.9c0-0.4,0.1-0.8,0.3-1.2c0.2-0.4,0.5-0.6,0.9-0.8c0.3-0.1,0.5-0.2,0.8-0.2
		c0.6,0,1.1,0.2,1.5,0.6c0.4,0.4,0.6,0.9,0.6,1.5v0.2H289z M287.7,57.6c0,0.2,0.1,0.4,0.2,0.5c0.1,0.2,0.3,0.2,0.5,0.2
		c0.2,0,0.4-0.1,0.5-0.2c0.1-0.1,0.2-0.3,0.2-0.5v-1.7c0-0.3-0.1-0.5-0.3-0.6c-0.1-0.1-0.2-0.1-0.4-0.1c-0.2,0-0.4,0.1-0.5,0.3
		c-0.1,0.2-0.1,0.3-0.1,0.5V57.6z"/>
	<path d="M293.5,58.3c0.6,0,0.9-0.3,0.9-0.9v-0.5c0-0.9-0.5-1.4-1.5-1.4v-1.2c0.5,0,0.9-0.1,1.2-0.4c0.2-0.3,0.3-0.6,0.3-1.1v-0.2
		c0-0.6-0.3-0.9-0.8-0.9c-0.3,0-0.5,0.1-0.6,0.3c-0.1,0.2-0.2,0.4-0.2,0.6V53h-1.3v-0.2c0-0.6,0.2-1.2,0.5-1.6
		c0.4-0.5,0.9-0.7,1.6-0.7c0.6,0,1.2,0.2,1.5,0.6c0.3,0.4,0.5,0.9,0.5,1.5V53c0,0.6-0.2,1-0.5,1.5c-0.1,0.2-0.3,0.3-0.5,0.4
		c0.4,0.2,0.7,0.6,0.9,1c0.1,0.2,0.2,0.5,0.2,0.9v0.7c0,0.7-0.2,1.2-0.7,1.6c-0.4,0.4-1,0.6-1.6,0.6c-0.6,0-1.1-0.2-1.5-0.6
		s-0.6-0.9-0.6-1.5v-0.2l1.3-0.1l0,0.3c0,0.2,0.1,0.4,0.2,0.6C293.1,58.3,293.3,58.3,293.5,58.3z"/>
</g>
<g class="st0">
	<path d="M94.4,50.9c0,2.2-1,4.1-2.9,5.6c-1.9,1.5-4.3,2.3-7,2.3c-1.6,0-2.9-0.1-3.9-0.4l0.9-4.6c0.7,0.1,1.3,0.2,1.8,0.2
		c0.3,0,0.8,0,1.3,0c1-0.1,1.9-0.3,2.6-0.9s1-1.2,1-2V25.4h6.2V50.9z"/>
</g>
<g class="st0">
	<path d="M119.8,25.5c3.5,0,6.1,0.8,7.7,2.3c1.4,1.3,2.2,3.2,2.2,5.6v4.8c0,2.3-1.1,4.3-3.4,5.9l4.7,14.5h-6.8l-3.8-12.5
		c-0.2,0-0.4,0-0.6,0h-3.6v12.5h-6.3V25.5H119.8z M123.5,33.5c0-1.9-1.2-2.9-3.6-2.9h-3.8v10.6h3.8c1,0,1.8-0.3,2.5-0.8
		c0.7-0.6,1-1.2,1-2V33.5z"/>
</g>
<g class="st0">
	<path d="M107.2,49.9c-0.4,2-1,3.6-1.7,5c0.7,0.7,1.2,1,1.7,1v2.6c-1,0-2-0.5-3.1-1.5c-1,1.2-2.1,1.7-3.3,1.7
		c-1.4,0-2.4-0.6-3.1-1.8c-0.4-0.8-0.7-1.6-0.7-2.6c0-1,0.2-1.9,0.6-3c0.1-0.2,0.3-0.6,0.7-1.4c0.2-0.4,0.5-0.8,0.7-1.1l-0.5-1.3
		c-0.3-0.6-0.4-1-0.5-1.3c-0.2-0.5-0.3-1-0.4-1.4c-0.1-0.4-0.1-0.9-0.1-1.3c0-0.8,0.2-1.6,0.5-2.3c0.3-0.7,0.8-1.3,1.5-1.6
		c0.5-0.3,1.1-0.5,1.7-0.5c0.7,0,1.3,0.2,1.9,0.6c0.6,0.4,1,0.9,1.3,1.6c0.2,0.5,0.4,1.1,0.4,1.8c0,1.1-0.4,2.2-1.1,3.2l-0.6,0.8
		c-0.5,0.7-1,1.4-1.4,2c0.6,1.3,1.2,2.5,1.9,3.6c0.4-1,0.8-2.2,1-3.4L107.2,49.9z M100.8,56.2c0.5,0,1.1-0.4,1.7-1.1
		c-0.7-1-1.4-2.2-2.1-3.6c-0.2,0.3-0.3,0.6-0.5,0.9c-0.3,0.7-0.4,1.3-0.4,1.9c0,0.5,0.1,0.9,0.3,1.2C100,56,100.4,56.2,100.8,56.2z
		 M99.9,43.6c0,0.5,0.3,1.5,0.8,2.9c0.1-0.1,0.2-0.3,0.3-0.4l0.3-0.5l0.5-0.8c0.4-0.6,0.6-1.1,0.6-1.6c0-0.4,0-0.6-0.1-0.8
		c-0.2-0.6-0.6-0.9-1.1-0.9c-0.4,0-0.8,0.3-1.1,0.8C100,42.6,99.9,43.1,99.9,43.6z"/>
</g>
</svg>
